<?xml version="1.0" encoding="UTF-8"?>
<svg xmlns="http://www.w3.org/2000/svg" viewBox="0 0 800 1050" width="800" height="1050">
  <defs>
    <radialGradient id="glow" cx="50%" cy="45%" r="55%">
      <stop offset="0%" stop-color="#c9a25a" stop-opacity="0.06"/>
      <stop offset="100%" stop-color="#c9a25a" stop-opacity="0"/>
    </radialGradient>
    <filter id="blur-sm">
      <feGaussianBlur stdDeviation="18"/>
    </filter>
  </defs>

  <!-- Background -->
  <rect width="800" height="1050" fill="#0b0e0c"/>
  <rect width="800" height="1050" fill="url(#glow)"/>

  <!-- Outer border -->
  <rect x="24" y="24" width="752" height="1002" fill="none"
        stroke="#c9a25a" stroke-opacity="0.2" stroke-width="1" rx="4"/>

  <!-- Decorative top line -->
  <line x1="80" y1="80" x2="720" y2="80"
        stroke="#c9a25a" stroke-opacity="0.15" stroke-width="0.8"/>

  <!-- Brand name -->
  <text x="400" y="155"
        text-anchor="middle"
        font-family="Georgia, 'Times New Roman', serif"
        font-size="72" font-weight="400"
        fill="#c9a25a" letter-spacing="8">
    Bamboo
  </text>

  <!-- Tagline -->
  <text x="400" y="195"
        text-anchor="middle"
        font-family="Arial, Helvetica, sans-serif"
        font-size="14" font-weight="400" letter-spacing="6"
        fill="rgba(243,238,226,0.55)">
    COCKTAIL BAR · LECCE
  </text>

  <!-- Divider dots -->
  <g transform="translate(400, 235)">
    <circle cx="-24" cy="0" r="2" fill="#c9a25a" fill-opacity="0.5"/>
    <circle cx="0" cy="0" r="3" fill="#c9a25a"/>
    <circle cx="24" cy="0" r="2" fill="#c9a25a" fill-opacity="0.5"/>
  </g>

  <!-- QR background panel -->
  <rect x="130" y="260" width="540" height="540"
        fill="rgba(201,162,90,0.05)" rx="12"
        stroke="#c9a25a" stroke-opacity="0.2" stroke-width="1"/>

  <!-- QR code -->
  <g transform="translate(150 280) scale(15.151515151515152)">
    <path stroke="#c9a25a" d="M0 0.5h7m1 0h3m4 0h1m2 0h1m1 0h1m2 0h2m1 0h7M0 1.5h1m5 0h1m1 0h1m2 0h4m6 0h2m1 0h1m1 0h1m5 0h1M0 2.5h1m1 0h3m1 0h1m1 0h1m6 0h4m2 0h4m1 0h1m1 0h3m1 0h1M0 3.5h1m1 0h3m1 0h1m6 0h1m3 0h1m2 0h1m1 0h3m1 0h1m1 0h3m1 0h1M0 4.5h1m1 0h3m1 0h1m2 0h4m4 0h5m4 0h1m1 0h3m1 0h1M0 5.5h1m5 0h1m1 0h2m3 0h3m7 0h2m1 0h1m5 0h1M0 6.5h7m1 0h1m1 0h1m1 0h1m1 0h1m1 0h1m1 0h1m1 0h1m1 0h1m1 0h1m1 0h7M8 7.5h1m2 0h1m3 0h1m1 0h1m3 0h3M2 8.5h3m1 0h1m1 0h2m2 0h3m2 0h3m2 0h6m2 0h3M5 9.5h1m4 0h1m1 0h1m1 0h1m4 0h3m1 0h1m1 0h2m2 0h1m2 0h1M0 10.5h3m1 0h3m2 0h1m1 0h5m1 0h2m1 0h2m2 0h1m2 0h1m3 0h1M1 11.5h2m1 0h2m1 0h2m4 0h4m1 0h2m1 0h4m1 0h1m2 0h2m1 0h1M1 12.5h1m2 0h3m1 0h3m2 0h1m2 0h1m4 0h1m2 0h2m2 0h2M0 13.5h1m6 0h5m1 0h1m1 0h2m1 0h1m1 0h1m1 0h3m1 0h1m2 0h1m2 0h1M0 14.5h2m1 0h1m2 0h3m2 0h4m3 0h1m1 0h1m1 0h1m2 0h1m1 0h1m3 0h1M2 15.5h3m3 0h3m2 0h3m1 0h1m2 0h4m2 0h2m1 0h4M2 16.5h2m2 0h3m3 0h1m2 0h1m7 0h1m1 0h1m2 0h1m2 0h2M0 17.5h1m11 0h3m1 0h1m2 0h2m2 0h2m1 0h1m5 0h1M3 18.5h5m1 0h4m2 0h2m1 0h1m1 0h3m4 0h2m1 0h1M0 19.5h3m4 0h1m3 0h2m1 0h2m2 0h7m3 0h3M1 20.5h1m1 0h1m1 0h6m2 0h1m1 0h1m1 0h1m1 0h1m2 0h1m1 0h1m2 0h3m1 0h2M0 21.5h2m3 0h1m5 0h4m1 0h2m1 0h1m1 0h1m2 0h1m1 0h1m3 0h1m1 0h1M0 22.5h1m1 0h1m2 0h2m4 0h3m2 0h2m2 0h3m6 0h3M0 23.5h1m2 0h3m1 0h1m1 0h1m1 0h4m2 0h1m1 0h5m4 0h4M0 24.5h1m1 0h1m3 0h1m4 0h3m4 0h1m1 0h1m1 0h7m2 0h1M8 25.5h4m2 0h3m1 0h3m2 0h2m3 0h3m1 0h1M0 26.5h7m3 0h6m1 0h4m1 0h3m1 0h1m1 0h4M0 27.5h1m5 0h1m2 0h2m2 0h1m1 0h1m2 0h1m1 0h1m2 0h2m3 0h1m1 0h3M0 28.5h1m1 0h3m1 0h1m1 0h2m1 0h3m3 0h1m3 0h2m1 0h5m2 0h2M0 29.5h1m1 0h3m1 0h1m1 0h1m1 0h1m1 0h3m5 0h1m2 0h3m2 0h1m1 0h2M0 30.5h1m1 0h3m1 0h1m1 0h1m1 0h2m2 0h1m1 0h3m2 0h1m1 0h4m2 0h2M0 31.5h1m5 0h1m2 0h1m1 0h1m1 0h3m1 0h2m3 0h1m2 0h3m1 0h2M0 32.5h7m3 0h3m1 0h1m2 0h1m2 0h1m2 0h4m2 0h1m1 0h1"/>
  </g>

  <!-- Corner accents -->
  <line x1="130" y1="260" x2="174" y2="260"
        stroke="#c9a25a" stroke-width="2"/>
  <line x1="130" y1="260" x2="130" y2="304"
        stroke="#c9a25a" stroke-width="2"/>
  <line x1="670" y1="260" x2="626" y2="260"
        stroke="#c9a25a" stroke-width="2"/>
  <line x1="670" y1="260" x2="670" y2="304"
        stroke="#c9a25a" stroke-width="2"/>
  <line x1="130" y1="800" x2="174" y2="800"
        stroke="#c9a25a" stroke-width="2"/>
  <line x1="130" y1="800" x2="130" y2="756"
        stroke="#c9a25a" stroke-width="2"/>
  <line x1="670" y1="800" x2="626" y2="800"
        stroke="#c9a25a" stroke-width="2"/>
  <line x1="670" y1="800" x2="670" y2="756"
        stroke="#c9a25a" stroke-width="2"/>

  <!-- CTA — main line -->
  <text x="400" y="852"
        text-anchor="middle"
        font-family="Georgia, 'Times New Roman', serif"
        font-size="28" font-style="italic" font-weight="400"
        fill="#f3eee2">
    Scansiona per il menu
  </text>

  <!-- CTA — multilingual -->
  <text x="400" y="886"
        text-anchor="middle"
        font-family="Arial, Helvetica, sans-serif"
        font-size="13" font-weight="300"
        fill="rgba(243,238,226,0.55)" letter-spacing="1">
    Scan the menu · Scanne le menu · Menü scannen
  </text>

  <!-- Divider -->
  <line x1="320" y1="970" x2="480" y2="970"
        stroke="#c9a25a" stroke-opacity="0.15" stroke-width="0.8"/>

  <!-- URL hint -->
  <text x="400" y="1000"
        text-anchor="middle"
        font-family="Arial, Helvetica, sans-serif"
        font-size="11" font-weight="400" letter-spacing="1"
        fill="rgba(243,238,226,0.55)">
    bamboo-menu.vercel.app
  </text>
</svg>